<?xml version="1.0" encoding="UTF-8"?>
<svg xmlns="http://www.w3.org/2000/svg" viewBox="0 0 1920 1080">
  <defs>
    <style>
      .cls-1 {
        fill: #bcffff;
      }

      .cls-2 {
        fill: #98ffff;
      }
    </style>
  </defs>
  <g id="Layer_1" data-name="Layer 1">
    <rect class="cls-2" width="1920" height="1080"/>
  </g>
  <g id="Layer_2" data-name="Layer 2">
    <path class="cls-1" d="M960,0h240.41c77.55,6.01,184.05,27.6,268.59,105,61.39,56.2,67.89,102.19,123,152,53.03,47.93,147.4,96.09,328,83.18v257.72c-164.08,23.67-267.95-11.35-332-46.9-149.94-83.22-166.75-216.59-330-368C1150.29,83.1,1037.17,29.45,960,0Z"/>
  </g>
  <g id="Layer_3" data-name="Layer 3">
    <path class="cls-1" d="M0,121.12V412.54c32.92-11,80.01-20.49,121,.46,73.89,37.76,42.38,130.67,103,236,88.56,153.88,252.11,122.91,346,291,29.86,53.45,40.37,105.01,44.59,140h605.64c-96.18-229.02-220.06-334.24-315.23-388-156.92-88.64-259.97-51.07-375-167-111.82-112.7-78.53-212.81-185-309C242.58,123.48,99.96,115.1,0,121.12Z"/>
  </g>
</svg>