<?xml version="1.0" encoding="UTF-8"?>
<svg xmlns="http://www.w3.org/2000/svg" viewBox="0 0 1920 1080">
  <defs>
    <style>
      .cls-1 {
        fill: #ff9;
      }

      .cls-2 {
        fill: #40a835;
      }

      .cls-3 {
        fill: #48b441;
      }
    </style>
  </defs>
  <g id="Layer_1" data-name="Layer 1">
    <path class="cls-2" d="M953.69,540c-14.95,3.11-71.31,16.68-110.69,70-27.37,37.06-33.03,75.05-34.5,92.5-.6,9.45-3.33,68.62,42.5,115.5,40.74,41.68,91.6,44.74,102.69,45.14,36.41,3.69,114.01,16.52,192.31,71.86,71.97,50.86,109.26,112.72,125.87,145h293.51c4.73-39.52,7.18-101.63-11.38-174-23.61-92.09-69.63-155.52-97.5-188.5-29.67-36.49-97.16-109.35-209.5-153.5-131.68-51.75-247.64-33.65-293.31-24Z"/>
  </g>
  <g id="Layer_2" data-name="Layer 2">
    <path class="cls-3" d="M987,624c-53.03,31.15-95.48,105.77-76,133,12.13,16.96,46.96,13.68,77,7,8.79-9.22,28.63-27.5,60-37,36.85-11.16,67.9-3.63,80,0,20.17,9.02,40.34,18.03,60.51,27.05,2.53,1.26,27.44,13.21,49.49,.95,22.15-12.32,32.57-44.16,20-74-94.94-73.01-200.64-98.33-271-57Z"/>
  </g>
  <g id="Layer_3" data-name="Layer 3">
    <path class="cls-1" d="M1143,777c31.72,10.86,54.18,50.45,42,74-10.49,20.28-43.27,22.13-62,19-30.17-5.04-64.71-29.78-62-55,2.88-26.76,47.24-49.9,82-38Z"/>
  </g>
</svg>