<?xml version="1.0" encoding="UTF-8"?>
<svg xmlns="http://www.w3.org/2000/svg" viewBox="0 0 1920 1080">
  <defs>
    <style>
      .cls-1 {
        fill: #ff9;
      }

      .cls-2 {
        fill: #40a835;
      }

      .cls-3 {
        fill: #407d35;
      }

      .cls-4 {
        fill: #48b441;
      }
    </style>
  </defs>
  <g id="Layer_2" data-name="Layer 2">
    <path class="cls-3" d="M1920,1080H0v-455c190.29,45.75,315.15,16.85,394-18,100.05-44.21,104.19-88.35,221-127,120.48-39.86,175.67-12.62,299-62,74.57-29.86,87.18-52.94,158-94,295.89-171.53,643.67-97.79,700-85,65.03,14.76,116.34,33.36,148,46v795Z"/>
  </g>
  <g id="Layer_3" data-name="Layer 3">
    <path class="cls-2" d="M1920,668.46c-5.1,.9-56.98,9.15-95-28.46-30.19-29.86-39.35-76.47-23-118,3.76-7.84,13.31-30.39,8-59-6.68-35.98-32.05-55.63-38-60-14.66-9.35-36.19-20.73-64-28-40.33-10.54-74.77-7.44-95-4-9.16,.02-34.72,1.28-60,19-24.8,17.38-34.75,40.38-38,49-7.92,21.58-19.97,63.62-13,116,4.88,36.67,17.3,65.02,27,83,54.26,80.69,127.51,174.03,225,267,57.25,54.59,113.6,100.24,166,138.2v-374.75Z"/>
  </g>
  <g id="Layer_4" data-name="Layer 4">
    <path class="cls-4" d="M1600,439c-4.49,1.87-24.23,10.65-34,33-7.14,16.35-5.12,31.18-4,37,3.63,14.41,9.86,33.02,21,53,8.54,15.31,17.8,27.58,26,37,10.87,11.26,26.97,14.78,40,9,14.25-6.32,18.44-20.91,19-23,2.33-6.12,7.32-21.74,3-41-5.16-23-20.22-36.14-25-40-1.42-2.94-3.11-7.49-3-13,.47-22.53,30.57-32.08,28-45-2.2-11.1-26.49-14.51-30-15-19.36-2.72-34.75,4.57-41,8Z"/>
  </g>
  <g id="Layer_5" data-name="Layer 5">
    <path class="cls-1" d="M1668,493c-.3,.88-2.91,8.92,2,16,4.06,5.85,11.6,8.66,19,7,8.12,.45,10.42,2.33,11,4,1.61,4.65-9.36,10.05-10,21-.18,2.98,.47,5.45,1,7,1.81,1.61,3.57,2.49,5,3,10.48,3.72,21.28-6.32,22-7,10.51-5.63,17.09-16.43,17-28-.12-15.2-11.68-24.03-13-25-1.53-1.57-11.88-11.84-28-11-15.47,.81-24.53,11.24-26,13Z"/>
  </g>
  <g id="Layer_6" data-name="Layer 6">
    <path class="cls-2" d="M0,987.41v92.59H759c253.16-217.57,286.33-313.39,264-360-52.88-110.38-474.01-63.64-794,109C128.34,883.31,51.96,942.37,0,987.41Z"/>
  </g>
  <g id="Layer_7" data-name="Layer 7">
    <path class="cls-4" d="M765,746c-23.35,16.61-37.86,35.56-46,48-6.72,12.79-5.97,28.2,2,40,11.48,17,31.54,17.02,33,17,22.08,1.03,65.01-.29,107-26,34.83-21.33,77.9-64.87,67-90-7.88-18.17-41.05-19.97-60-21-52.84-2.87-91.61,23.9-103,32Z"/>
  </g>
</svg>